<svg version="1.1" id="Layer_1" xmlns="http://www.w3.org/2000/svg" xmlns:xlink="http://www.w3.org/1999/xlink" x="0px" y="0px"
	 width="100%" viewBox="0 0 400 400" enable-background="new 0 0 400 400" xml:space="preserve">
<path fill="#000000" opacity="1.000000" stroke="none" 
	d="
M256.000000,401.000000 
	C170.666672,401.000000 85.833336,401.000000 1.000000,401.000000 
	C1.000000,267.666656 1.000000,134.333328 1.000000,1.000000 
	C134.333328,1.000000 267.666656,1.000000 401.000000,1.000000 
	C401.000000,134.333328 401.000000,267.666656 401.000000,401.000000 
	C352.833344,401.000000 304.666656,401.000000 256.000000,401.000000 
M122.548271,202.211578 
	C130.815781,235.781647 139.078995,269.352753 147.353012,302.921234 
	C150.376495,315.187744 153.337692,327.470734 156.504913,339.700195 
	C157.827942,344.808777 159.456375,345.169769 163.169678,341.634003 
	C166.545807,338.419281 169.895569,335.176819 173.254929,331.944489 
	C229.410919,277.912140 285.569519,223.882538 341.717163,169.841507 
	C346.594910,165.146759 346.216797,163.814362 339.614227,161.916397 
	C297.780823,149.891068 255.948532,137.861740 214.113327,125.842636 
	C177.061600,115.197815 140.011658,104.546608 102.937073,93.981911 
	C101.173714,93.479416 99.179039,93.788643 97.292091,93.719849 
	C97.250854,95.733734 96.770706,97.855072 97.233551,99.745544 
	C105.534355,133.649307 113.949257,167.525116 122.548271,202.211578 
z"/>
<path fill="#EFEFEF" opacity="1.000000" stroke="none" 
	d="
M122.443985,201.809250 
	C113.949257,167.525116 105.534355,133.649307 97.233551,99.745544 
	C96.770706,97.855072 97.250854,95.733734 97.292091,93.719849 
	C99.179039,93.788643 101.173714,93.479416 102.937073,93.981911 
	C140.011658,104.546608 177.061600,115.197815 214.113327,125.842636 
	C255.948532,137.861740 297.780823,149.891068 339.614227,161.916397 
	C346.216797,163.814362 346.594910,165.146759 341.717163,169.841507 
	C285.569519,223.882538 229.410919,277.912140 173.254929,331.944489 
	C169.895569,335.176819 166.545807,338.419281 163.169678,341.634003 
	C159.456375,345.169769 157.827942,344.808777 156.504913,339.700195 
	C153.337692,327.470734 150.376495,315.187744 147.353012,302.921234 
	C139.078995,269.352753 130.815781,235.781647 122.443985,201.809250 
M189.969818,294.494263 
	C176.317734,290.570526 162.665649,286.646790 148.237015,282.499847 
	C152.710190,300.587494 156.952896,317.743195 161.346909,335.510742 
	C174.837799,322.516022 187.575989,310.246338 200.789902,297.518433 
	C196.797211,296.417084 193.767212,295.581268 189.969818,294.494263 
M248.177551,231.201263 
	C249.585373,236.524261 250.993210,241.847260 252.559937,247.771072 
	C265.643219,235.168274 278.149445,223.121384 291.291260,210.462204 
	C273.662445,205.404465 256.950714,200.609818 239.575775,195.624908 
	C242.546692,207.859406 245.282211,219.124588 248.177551,231.201263 
M321.072601,162.410065 
	C309.208923,159.001038 297.345276,155.592010 284.913300,152.019699 
	C289.245422,169.574707 293.427429,186.521317 297.806976,204.268570 
	C311.000092,191.553238 323.465973,179.538803 336.527405,166.950378 
	C331.012817,165.344635 326.426361,164.009155 321.072601,162.410065 
M162.313507,182.806442 
	C164.627808,180.505478 166.942108,178.204514 169.731339,175.431381 
	C152.335571,170.447891 135.676086,165.675339 118.125923,160.647644 
	C122.513016,178.374588 126.681076,195.216446 131.055573,212.892471 
	C141.694061,202.641922 151.740036,192.962265 162.313507,182.806442 
M196.934494,232.633820 
	C197.438354,233.484299 197.774078,234.890106 198.471512,235.101242 
	C207.685638,237.890884 216.951080,240.511063 226.202820,243.176575 
	C232.805573,245.078857 239.407043,246.985611 246.873932,249.139908 
	C242.486404,231.392807 238.334778,214.599945 233.989349,197.023224 
	C221.381546,209.106354 209.396164,220.592987 196.934494,232.633820 
M126.861061,106.657715 
	C119.148239,104.436852 111.435410,102.215988 103.068970,99.806923 
	C107.482056,117.569748 111.661560,134.392426 116.022316,151.944672 
	C129.161102,139.268021 141.659515,127.209213 154.770660,114.559212 
	C145.109131,111.822258 136.376633,109.348473 126.861061,106.657715 
M175.851974,187.784592 
	C175.198959,185.285492 174.545929,182.786392 173.734268,179.680191 
	C160.723068,192.208588 148.165695,204.300003 135.018219,216.959641 
	C152.451477,221.964691 169.188812,226.769943 186.780487,231.820480 
	C182.985825,216.612137 179.488724,202.596313 175.851974,187.784592 
M248.792938,141.701279 
	C240.935303,139.403610 233.077682,137.105942 224.475418,134.590530 
	C228.832321,152.288681 232.939026,168.970490 237.174469,186.175232 
	C250.073303,173.738815 262.490814,161.766449 275.477081,149.245728 
	C266.379578,146.680496 257.971680,144.309708 248.792938,141.701279 
M160.450653,259.953308 
	C167.661118,251.912903 174.871582,243.872498 181.690659,236.268524 
	C167.166260,232.103241 150.703506,227.382080 133.396408,222.418777 
	C137.740463,239.992950 141.824997,256.517212 146.083664,273.745911 
	C151.115128,268.930084 155.537430,264.697296 160.450653,259.953308 
M159.659821,279.864380 
	C173.317261,283.776917 186.974701,287.689453 201.517990,291.855774 
	C197.184998,274.289642 193.093475,257.702515 188.836884,240.446136 
	C175.791138,253.068527 163.461670,264.997894 150.707642,277.338013 
	C154.104828,278.294830 156.490891,278.966858 159.659821,279.864380 
M170.707413,166.670624 
	C166.786011,150.974548 162.864624,135.278473 158.711792,118.656067 
	C145.769623,131.162933 133.479034,143.040146 120.641151,155.446243 
	C137.344193,160.222549 152.962646,164.655838 168.552002,169.189270 
	C170.440918,169.738586 171.454498,169.854721 170.707413,166.670624 
M280.953400,159.672073 
	C280.417572,157.854004 279.881744,156.035934 279.161987,153.593704 
	C266.397766,165.895981 254.118256,177.731110 241.201431,190.180496 
	C258.426941,195.097305 274.872101,199.791367 292.082214,204.703766 
	C288.225983,189.174637 284.662018,174.822372 280.953400,159.672073 
M223.084534,199.565247 
	C225.322205,197.459747 227.559875,195.354248 230.347168,192.731598 
	C212.913040,187.751266 196.579514,183.085358 179.338547,178.160202 
	C183.670471,195.697952 187.751953,212.221817 192.009659,229.459061 
	C202.519623,219.355820 212.550964,209.712692 223.084534,199.565247 
M204.559036,128.903122 
	C191.425674,125.116447 178.292328,121.329773 164.323227,117.302139 
	C168.639694,134.846786 172.698196,151.342957 176.956009,168.649216 
	C189.840347,156.246414 202.181137,144.366852 215.013535,132.014053 
	C211.297211,130.885803 208.320450,129.982071 204.559036,128.903122 
M240.217422,259.621460 
	C241.895615,258.357117 243.573807,257.092773 245.252014,255.828445 
	C244.934296,255.348740 244.616592,254.869034 244.298874,254.389343 
	C227.994385,249.676346 211.689896,244.963348 194.590775,240.020676 
	C198.863892,257.261200 202.972458,273.837830 207.299438,291.295685 
	C218.644104,280.376129 229.167953,270.246643 240.217422,259.621460 
M224.398605,185.110321 
	C226.510147,185.721481 228.621674,186.332642 231.583176,187.189819 
	C227.261978,169.752335 223.199310,153.358093 218.924881,136.109360 
	C206.029984,148.538879 193.728958,160.395966 180.991760,172.673477 
	C195.598419,176.869904 209.607147,180.894547 224.398605,185.110321 
z"/>
<path fill="#060606" opacity="1.000000" stroke="none" 
	d="
M190.353516,294.619873 
	C193.767212,295.581268 196.797211,296.417084 200.789902,297.518433 
	C187.575989,310.246338 174.837799,322.516022 161.346909,335.510742 
	C156.952896,317.743195 152.710190,300.587494 148.237015,282.499847 
	C162.665649,286.646790 176.317734,290.570526 190.353516,294.619873 
z"/>
<path fill="#060606" opacity="1.000000" stroke="none" 
	d="
M248.097656,230.795517 
	C245.282211,219.124588 242.546692,207.859406 239.575775,195.624908 
	C256.950714,200.609818 273.662445,205.404465 291.291260,210.462204 
	C278.149445,223.121384 265.643219,235.168274 252.559937,247.771072 
	C250.993210,241.847260 249.585373,236.524261 248.097656,230.795517 
z"/>
<path fill="#060606" opacity="1.000000" stroke="none" 
	d="
M321.456238,162.541870 
	C326.426361,164.009155 331.012817,165.344635 336.527405,166.950378 
	C323.465973,179.538803 311.000092,191.553238 297.806976,204.268570 
	C293.427429,186.521317 289.245422,169.574707 284.913300,152.019699 
	C297.345276,155.592010 309.208923,159.001038 321.456238,162.541870 
z"/>
<path fill="#060606" opacity="1.000000" stroke="none" 
	d="
M162.049744,183.044525 
	C151.740036,192.962265 141.694061,202.641922 131.055573,212.892471 
	C126.681076,195.216446 122.513016,178.374588 118.125923,160.647644 
	C135.676086,165.675339 152.335571,170.447891 169.731339,175.431381 
	C166.942108,178.204514 164.627808,180.505478 162.049744,183.044525 
z"/>
<path fill="#070707" opacity="1.000000" stroke="none" 
	d="
M197.172638,232.356720 
	C209.396164,220.592987 221.381546,209.106354 233.989349,197.023224 
	C238.334778,214.599945 242.486404,231.392807 246.873932,249.139908 
	C239.407043,246.985611 232.805573,245.078857 226.202820,243.176575 
	C216.951080,240.511063 207.685638,237.890884 198.471512,235.101242 
	C197.774078,234.890106 197.438354,233.484299 197.172638,232.356720 
z"/>
<path fill="#060606" opacity="1.000000" stroke="none" 
	d="
M127.252602,106.766205 
	C136.376633,109.348473 145.109131,111.822258 154.770660,114.559212 
	C141.659515,127.209213 129.161102,139.268021 116.022316,151.944672 
	C111.661560,134.392426 107.482056,117.569748 103.068970,99.806923 
	C111.435410,102.215988 119.148239,104.436852 127.252602,106.766205 
z"/>
<path fill="#060606" opacity="1.000000" stroke="none" 
	d="
M175.921799,188.182556 
	C179.488724,202.596313 182.985825,216.612137 186.780487,231.820480 
	C169.188812,226.769943 152.451477,221.964691 135.018219,216.959641 
	C148.165695,204.300003 160.723068,192.208588 173.734268,179.680191 
	C174.545929,182.786392 175.198959,185.285492 175.921799,188.182556 
z"/>
<path fill="#060606" opacity="1.000000" stroke="none" 
	d="
M249.178360,141.820099 
	C257.971680,144.309708 266.379578,146.680496 275.477081,149.245728 
	C262.490814,161.766449 250.073303,173.738815 237.174469,186.175232 
	C232.939026,168.970490 228.832321,152.288681 224.475418,134.590530 
	C233.077682,137.105942 240.935303,139.403610 249.178360,141.820099 
z"/>
<path fill="#060606" opacity="1.000000" stroke="none" 
	d="
M160.205200,260.208923 
	C155.537430,264.697296 151.115128,268.930084 146.083664,273.745911 
	C141.824997,256.517212 137.740463,239.992950 133.396408,222.418777 
	C150.703506,227.382080 167.166260,232.103241 181.690659,236.268524 
	C174.871582,243.872498 167.661118,251.912903 160.205200,260.208923 
z"/>
<path fill="#070707" opacity="1.000000" stroke="none" 
	d="
M159.268402,279.751617 
	C156.490891,278.966858 154.104828,278.294830 150.707642,277.338013 
	C163.461670,264.997894 175.791138,253.068527 188.836884,240.446136 
	C193.093475,257.702515 197.184998,274.289642 201.517990,291.855774 
	C186.974701,287.689453 173.317261,283.776917 159.268402,279.751617 
z"/>
<path fill="#060606" opacity="1.000000" stroke="none" 
	d="
M170.786530,167.060669 
	C171.454498,169.854721 170.440918,169.738586 168.552002,169.189270 
	C152.962646,164.655838 137.344193,160.222549 120.641151,155.446243 
	C133.479034,143.040146 145.769623,131.162933 158.711792,118.656067 
	C162.864624,135.278473 166.786011,150.974548 170.786530,167.060669 
z"/>
<path fill="#060606" opacity="1.000000" stroke="none" 
	d="
M281.025726,160.071091 
	C284.662018,174.822372 288.225983,189.174637 292.082214,204.703766 
	C274.872101,199.791367 258.426941,195.097305 241.201431,190.180496 
	C254.118256,177.731110 266.397766,165.895981 279.161987,153.593704 
	C279.881744,156.035934 280.417572,157.854004 281.025726,160.071091 
z"/>
<path fill="#060606" opacity="1.000000" stroke="none" 
	d="
M222.833405,199.817413 
	C212.550964,209.712692 202.519623,219.355820 192.009659,229.459061 
	C187.751953,212.221817 183.670471,195.697952 179.338547,178.160202 
	C196.579514,183.085358 212.913040,187.751266 230.347168,192.731598 
	C227.559875,195.354248 225.322205,197.459747 222.833405,199.817413 
z"/>
<path fill="#060606" opacity="1.000000" stroke="none" 
	d="
M204.951370,128.990738 
	C208.320450,129.982071 211.297211,130.885803 215.013535,132.014053 
	C202.181137,144.366852 189.840347,156.246414 176.956009,168.649216 
	C172.698196,151.342957 168.639694,134.846786 164.323227,117.302139 
	C178.292328,121.329773 191.425674,125.116447 204.951370,128.990738 
z"/>
<path fill="#060606" opacity="1.000000" stroke="none" 
	d="
M239.954620,259.869324 
	C229.167953,270.246643 218.644104,280.376129 207.299438,291.295685 
	C202.972458,273.837830 198.863892,257.261200 194.590775,240.020676 
	C211.689896,244.963348 227.994385,249.676346 244.298874,254.389343 
	C244.616592,254.869034 244.934296,255.348740 245.252014,255.828445 
	C243.573807,257.092773 241.895615,258.357117 239.954620,259.869324 
z"/>
<path fill="#060606" opacity="1.000000" stroke="none" 
	d="
M224.007233,185.014755 
	C209.607147,180.894547 195.598419,176.869904 180.991760,172.673477 
	C193.728958,160.395966 206.029984,148.538879 218.924881,136.109360 
	C223.199310,153.358093 227.261978,169.752335 231.583176,187.189819 
	C228.621674,186.332642 226.510147,185.721481 224.007233,185.014755 
z"/>
</svg>